<svg xmlns="http://www.w3.org/2000/svg" xmlns:xlink="http://www.w3.org/1999/xlink" width="292" height="292.001" viewBox="0 0 292 292.001"><defs><style>.a{fill:url(#a);}</style><pattern id="a" width="1" height="1" viewBox="146.001 0 292 292.001"><image preserveAspectRatio="xMidYMid slice" width="438.001" height="292.001" xlink:href="../%E5%9C%96%E7%89%87/markus-spiske-w8SwOGfoeCw-unsplash.jpg"/></pattern></defs><path class="a" d="M-2024-912v-83.433A38.418,38.418,0,0,1-2037.5-993a38.5,38.5,0,0,1-38.5-38.5,38.5,38.5,0,0,1,38.5-38.5,38.42,38.42,0,0,1,13.5,2.433V-1152h84.433a38.418,38.418,0,0,1-2.433-13.5,38.5,38.5,0,0,1,38.5-38.5,38.5,38.5,0,0,1,38.5,38.5,38.42,38.42,0,0,1-2.433,13.5H-1784v240Z" transform="translate(2076 1204)"/></svg>